<?xml version="1.0" encoding="utf-8" standalone="no"?>
<!DOCTYPE svg PUBLIC "-//W3C//DTD SVG 1.1//EN"
  "http://www.w3.org/Graphics/SVG/1.1/DTD/svg11.dtd">
<svg xmlns:xlink="http://www.w3.org/1999/xlink" width="517.896pt" height="299.237281pt" viewBox="0 0 517.896 299.237281" xmlns="http://www.w3.org/2000/svg" version="1.1">
 <metadata>
  <rdf:RDF xmlns:dc="http://purl.org/dc/elements/1.1/" xmlns:cc="http://creativecommons.org/ns#" xmlns:rdf="http://www.w3.org/1999/02/22-rdf-syntax-ns#">
   <cc:Work>
    <dc:type rdf:resource="http://purl.org/dc/dcmitype/StillImage"/>
    <dc:format>image/svg+xml</dc:format>
    <dc:creator>
     <cc:Agent>
      <dc:title>Matplotlib v3.10.9, https://matplotlib.org/</dc:title>
     </cc:Agent>
    </dc:creator>
   </cc:Work>
  </rdf:RDF>
 </metadata>
 <defs>
  <style type="text/css">*{stroke-linejoin: round; stroke-linecap: butt}</style>
 </defs>
 <g id="figure_1">
  <g id="patch_1">
   <path d="M 0 299.237281 
L 517.896 299.237281 
L 517.896 0 
L 0 0 
z
" style="fill: #ffffff"/>
  </g>
  <g id="axes_1">
   <g id="patch_2">
    <path d="M 90.656 249.047875 
L 510.696 249.047875 
L 510.696 33.875875 
L 90.656 33.875875 
z
" style="fill: #ffffff"/>
   </g>
   <g id="matplotlib.axis_1">
    <g id="xtick_1">
     <g id="line2d_1">
      <path d="M 90.656 249.047875 
L 90.656 33.875875 
" clip-path="url(#pc59b5e1d7a)" style="fill: none; stroke: #e6e6e6; stroke-width: 0.8; stroke-linecap: square"/>
     </g>
     <g id="line2d_2"/>
     <g id="text_1">
      <!-- 0 -->
      <g transform="translate(87.792875 259.386469) scale(0.09 -0.09)">
       <defs>
        <path id="DejaVuSans-30" d="M 2034 4250 
Q 1547 4250 1301 3770 
Q 1056 3291 1056 2328 
Q 1056 1369 1301 889 
Q 1547 409 2034 409 
Q 2525 409 2770 889 
Q 3016 1369 3016 2328 
Q 3016 3291 2770 3770 
Q 2525 4250 2034 4250 
z
M 2034 4750 
Q 2819 4750 3233 4129 
Q 3647 3509 3647 2328 
Q 3647 1150 3233 529 
Q 2819 -91 2034 -91 
Q 1250 -91 836 529 
Q 422 1150 422 2328 
Q 422 3509 836 4129 
Q 1250 4750 2034 4750 
z
" transform="scale(0.015625)"/>
       </defs>
       <use xlink:href="#DejaVuSans-30"/>
      </g>
     </g>
    </g>
    <g id="xtick_2">
     <g id="line2d_3">
      <path d="M 139.514222 249.047875 
L 139.514222 33.875875 
" clip-path="url(#pc59b5e1d7a)" style="fill: none; stroke: #e6e6e6; stroke-width: 0.8; stroke-linecap: square"/>
     </g>
     <g id="line2d_4"/>
     <g id="text_2">
      <!-- 2500 -->
      <g transform="translate(128.061722 259.386469) scale(0.09 -0.09)">
       <defs>
        <path id="DejaVuSans-32" d="M 1228 531 
L 3431 531 
L 3431 0 
L 469 0 
L 469 531 
Q 828 903 1448 1529 
Q 2069 2156 2228 2338 
Q 2531 2678 2651 2914 
Q 2772 3150 2772 3378 
Q 2772 3750 2511 3984 
Q 2250 4219 1831 4219 
Q 1534 4219 1204 4116 
Q 875 4013 500 3803 
L 500 4441 
Q 881 4594 1212 4672 
Q 1544 4750 1819 4750 
Q 2544 4750 2975 4387 
Q 3406 4025 3406 3419 
Q 3406 3131 3298 2873 
Q 3191 2616 2906 2266 
Q 2828 2175 2409 1742 
Q 1991 1309 1228 531 
z
" transform="scale(0.015625)"/>
        <path id="DejaVuSans-35" d="M 691 4666 
L 3169 4666 
L 3169 4134 
L 1269 4134 
L 1269 2991 
Q 1406 3038 1543 3061 
Q 1681 3084 1819 3084 
Q 2600 3084 3056 2656 
Q 3513 2228 3513 1497 
Q 3513 744 3044 326 
Q 2575 -91 1722 -91 
Q 1428 -91 1123 -41 
Q 819 9 494 109 
L 494 744 
Q 775 591 1075 516 
Q 1375 441 1709 441 
Q 2250 441 2565 725 
Q 2881 1009 2881 1497 
Q 2881 1984 2565 2268 
Q 2250 2553 1709 2553 
Q 1456 2553 1204 2497 
Q 953 2441 691 2322 
L 691 4666 
z
" transform="scale(0.015625)"/>
       </defs>
       <use xlink:href="#DejaVuSans-32"/>
       <use xlink:href="#DejaVuSans-35" transform="translate(63.623047 0)"/>
       <use xlink:href="#DejaVuSans-30" transform="translate(127.246094 0)"/>
       <use xlink:href="#DejaVuSans-30" transform="translate(190.869141 0)"/>
      </g>
     </g>
    </g>
    <g id="xtick_3">
     <g id="line2d_5">
      <path d="M 188.372445 249.047875 
L 188.372445 33.875875 
" clip-path="url(#pc59b5e1d7a)" style="fill: none; stroke: #e6e6e6; stroke-width: 0.8; stroke-linecap: square"/>
     </g>
     <g id="line2d_6"/>
     <g id="text_3">
      <!-- 5000 -->
      <g transform="translate(176.919945 259.386469) scale(0.09 -0.09)">
       <use xlink:href="#DejaVuSans-35"/>
       <use xlink:href="#DejaVuSans-30" transform="translate(63.623047 0)"/>
       <use xlink:href="#DejaVuSans-30" transform="translate(127.246094 0)"/>
       <use xlink:href="#DejaVuSans-30" transform="translate(190.869141 0)"/>
      </g>
     </g>
    </g>
    <g id="xtick_4">
     <g id="line2d_7">
      <path d="M 237.230667 249.047875 
L 237.230667 33.875875 
" clip-path="url(#pc59b5e1d7a)" style="fill: none; stroke: #e6e6e6; stroke-width: 0.8; stroke-linecap: square"/>
     </g>
     <g id="line2d_8"/>
     <g id="text_4">
      <!-- 7500 -->
      <g transform="translate(225.778167 259.386469) scale(0.09 -0.09)">
       <defs>
        <path id="DejaVuSans-37" d="M 525 4666 
L 3525 4666 
L 3525 4397 
L 1831 0 
L 1172 0 
L 2766 4134 
L 525 4134 
L 525 4666 
z
" transform="scale(0.015625)"/>
       </defs>
       <use xlink:href="#DejaVuSans-37"/>
       <use xlink:href="#DejaVuSans-35" transform="translate(63.623047 0)"/>
       <use xlink:href="#DejaVuSans-30" transform="translate(127.246094 0)"/>
       <use xlink:href="#DejaVuSans-30" transform="translate(190.869141 0)"/>
      </g>
     </g>
    </g>
    <g id="xtick_5">
     <g id="line2d_9">
      <path d="M 286.088889 249.047875 
L 286.088889 33.875875 
" clip-path="url(#pc59b5e1d7a)" style="fill: none; stroke: #e6e6e6; stroke-width: 0.8; stroke-linecap: square"/>
     </g>
     <g id="line2d_10"/>
     <g id="text_5">
      <!-- 10000 -->
      <g transform="translate(271.773264 259.386469) scale(0.09 -0.09)">
       <defs>
        <path id="DejaVuSans-31" d="M 794 531 
L 1825 531 
L 1825 4091 
L 703 3866 
L 703 4441 
L 1819 4666 
L 2450 4666 
L 2450 531 
L 3481 531 
L 3481 0 
L 794 0 
L 794 531 
z
" transform="scale(0.015625)"/>
       </defs>
       <use xlink:href="#DejaVuSans-31"/>
       <use xlink:href="#DejaVuSans-30" transform="translate(63.623047 0)"/>
       <use xlink:href="#DejaVuSans-30" transform="translate(127.246094 0)"/>
       <use xlink:href="#DejaVuSans-30" transform="translate(190.869141 0)"/>
       <use xlink:href="#DejaVuSans-30" transform="translate(254.492188 0)"/>
      </g>
     </g>
    </g>
    <g id="xtick_6">
     <g id="line2d_11">
      <path d="M 334.947111 249.047875 
L 334.947111 33.875875 
" clip-path="url(#pc59b5e1d7a)" style="fill: none; stroke: #e6e6e6; stroke-width: 0.8; stroke-linecap: square"/>
     </g>
     <g id="line2d_12"/>
     <g id="text_6">
      <!-- 12500 -->
      <g transform="translate(320.631486 259.386469) scale(0.09 -0.09)">
       <use xlink:href="#DejaVuSans-31"/>
       <use xlink:href="#DejaVuSans-32" transform="translate(63.623047 0)"/>
       <use xlink:href="#DejaVuSans-35" transform="translate(127.246094 0)"/>
       <use xlink:href="#DejaVuSans-30" transform="translate(190.869141 0)"/>
       <use xlink:href="#DejaVuSans-30" transform="translate(254.492188 0)"/>
      </g>
     </g>
    </g>
    <g id="xtick_7">
     <g id="line2d_13">
      <path d="M 383.805334 249.047875 
L 383.805334 33.875875 
" clip-path="url(#pc59b5e1d7a)" style="fill: none; stroke: #e6e6e6; stroke-width: 0.8; stroke-linecap: square"/>
     </g>
     <g id="line2d_14"/>
     <g id="text_7">
      <!-- 15000 -->
      <g transform="translate(369.489709 259.386469) scale(0.09 -0.09)">
       <use xlink:href="#DejaVuSans-31"/>
       <use xlink:href="#DejaVuSans-35" transform="translate(63.623047 0)"/>
       <use xlink:href="#DejaVuSans-30" transform="translate(127.246094 0)"/>
       <use xlink:href="#DejaVuSans-30" transform="translate(190.869141 0)"/>
       <use xlink:href="#DejaVuSans-30" transform="translate(254.492188 0)"/>
      </g>
     </g>
    </g>
    <g id="xtick_8">
     <g id="line2d_15">
      <path d="M 432.663556 249.047875 
L 432.663556 33.875875 
" clip-path="url(#pc59b5e1d7a)" style="fill: none; stroke: #e6e6e6; stroke-width: 0.8; stroke-linecap: square"/>
     </g>
     <g id="line2d_16"/>
     <g id="text_8">
      <!-- 17500 -->
      <g transform="translate(418.347931 259.386469) scale(0.09 -0.09)">
       <use xlink:href="#DejaVuSans-31"/>
       <use xlink:href="#DejaVuSans-37" transform="translate(63.623047 0)"/>
       <use xlink:href="#DejaVuSans-35" transform="translate(127.246094 0)"/>
       <use xlink:href="#DejaVuSans-30" transform="translate(190.869141 0)"/>
       <use xlink:href="#DejaVuSans-30" transform="translate(254.492188 0)"/>
      </g>
     </g>
    </g>
    <g id="xtick_9">
     <g id="line2d_17">
      <path d="M 481.521778 249.047875 
L 481.521778 33.875875 
" clip-path="url(#pc59b5e1d7a)" style="fill: none; stroke: #e6e6e6; stroke-width: 0.8; stroke-linecap: square"/>
     </g>
     <g id="line2d_18"/>
     <g id="text_9">
      <!-- 20000 -->
      <g transform="translate(467.206153 259.386469) scale(0.09 -0.09)">
       <use xlink:href="#DejaVuSans-32"/>
       <use xlink:href="#DejaVuSans-30" transform="translate(63.623047 0)"/>
       <use xlink:href="#DejaVuSans-30" transform="translate(127.246094 0)"/>
       <use xlink:href="#DejaVuSans-30" transform="translate(190.869141 0)"/>
       <use xlink:href="#DejaVuSans-30" transform="translate(254.492188 0)"/>
      </g>
     </g>
    </g>
    <g id="text_10">
     <!-- objects surviving each cumulative AND-requirement -->
     <g transform="translate(182.997484 272.096781) scale(0.09 -0.09)">
      <defs>
       <path id="DejaVuSans-6f" d="M 1959 3097 
Q 1497 3097 1228 2736 
Q 959 2375 959 1747 
Q 959 1119 1226 758 
Q 1494 397 1959 397 
Q 2419 397 2687 759 
Q 2956 1122 2956 1747 
Q 2956 2369 2687 2733 
Q 2419 3097 1959 3097 
z
M 1959 3584 
Q 2709 3584 3137 3096 
Q 3566 2609 3566 1747 
Q 3566 888 3137 398 
Q 2709 -91 1959 -91 
Q 1206 -91 779 398 
Q 353 888 353 1747 
Q 353 2609 779 3096 
Q 1206 3584 1959 3584 
z
" transform="scale(0.015625)"/>
       <path id="DejaVuSans-62" d="M 3116 1747 
Q 3116 2381 2855 2742 
Q 2594 3103 2138 3103 
Q 1681 3103 1420 2742 
Q 1159 2381 1159 1747 
Q 1159 1113 1420 752 
Q 1681 391 2138 391 
Q 2594 391 2855 752 
Q 3116 1113 3116 1747 
z
M 1159 2969 
Q 1341 3281 1617 3432 
Q 1894 3584 2278 3584 
Q 2916 3584 3314 3078 
Q 3713 2572 3713 1747 
Q 3713 922 3314 415 
Q 2916 -91 2278 -91 
Q 1894 -91 1617 61 
Q 1341 213 1159 525 
L 1159 0 
L 581 0 
L 581 4863 
L 1159 4863 
L 1159 2969 
z
" transform="scale(0.015625)"/>
       <path id="DejaVuSans-6a" d="M 603 3500 
L 1178 3500 
L 1178 -63 
Q 1178 -731 923 -1031 
Q 669 -1331 103 -1331 
L -116 -1331 
L -116 -844 
L 38 -844 
Q 366 -844 484 -692 
Q 603 -541 603 -63 
L 603 3500 
z
M 603 4863 
L 1178 4863 
L 1178 4134 
L 603 4134 
L 603 4863 
z
" transform="scale(0.015625)"/>
       <path id="DejaVuSans-65" d="M 3597 1894 
L 3597 1613 
L 953 1613 
Q 991 1019 1311 708 
Q 1631 397 2203 397 
Q 2534 397 2845 478 
Q 3156 559 3463 722 
L 3463 178 
Q 3153 47 2828 -22 
Q 2503 -91 2169 -91 
Q 1331 -91 842 396 
Q 353 884 353 1716 
Q 353 2575 817 3079 
Q 1281 3584 2069 3584 
Q 2775 3584 3186 3129 
Q 3597 2675 3597 1894 
z
M 3022 2063 
Q 3016 2534 2758 2815 
Q 2500 3097 2075 3097 
Q 1594 3097 1305 2825 
Q 1016 2553 972 2059 
L 3022 2063 
z
" transform="scale(0.015625)"/>
       <path id="DejaVuSans-63" d="M 3122 3366 
L 3122 2828 
Q 2878 2963 2633 3030 
Q 2388 3097 2138 3097 
Q 1578 3097 1268 2742 
Q 959 2388 959 1747 
Q 959 1106 1268 751 
Q 1578 397 2138 397 
Q 2388 397 2633 464 
Q 2878 531 3122 666 
L 3122 134 
Q 2881 22 2623 -34 
Q 2366 -91 2075 -91 
Q 1284 -91 818 406 
Q 353 903 353 1747 
Q 353 2603 823 3093 
Q 1294 3584 2113 3584 
Q 2378 3584 2631 3529 
Q 2884 3475 3122 3366 
z
" transform="scale(0.015625)"/>
       <path id="DejaVuSans-74" d="M 1172 4494 
L 1172 3500 
L 2356 3500 
L 2356 3053 
L 1172 3053 
L 1172 1153 
Q 1172 725 1289 603 
Q 1406 481 1766 481 
L 2356 481 
L 2356 0 
L 1766 0 
Q 1100 0 847 248 
Q 594 497 594 1153 
L 594 3053 
L 172 3053 
L 172 3500 
L 594 3500 
L 594 4494 
L 1172 4494 
z
" transform="scale(0.015625)"/>
       <path id="DejaVuSans-73" d="M 2834 3397 
L 2834 2853 
Q 2591 2978 2328 3040 
Q 2066 3103 1784 3103 
Q 1356 3103 1142 2972 
Q 928 2841 928 2578 
Q 928 2378 1081 2264 
Q 1234 2150 1697 2047 
L 1894 2003 
Q 2506 1872 2764 1633 
Q 3022 1394 3022 966 
Q 3022 478 2636 193 
Q 2250 -91 1575 -91 
Q 1294 -91 989 -36 
Q 684 19 347 128 
L 347 722 
Q 666 556 975 473 
Q 1284 391 1588 391 
Q 1994 391 2212 530 
Q 2431 669 2431 922 
Q 2431 1156 2273 1281 
Q 2116 1406 1581 1522 
L 1381 1569 
Q 847 1681 609 1914 
Q 372 2147 372 2553 
Q 372 3047 722 3315 
Q 1072 3584 1716 3584 
Q 2034 3584 2315 3537 
Q 2597 3491 2834 3397 
z
" transform="scale(0.015625)"/>
       <path id="DejaVuSans-20" transform="scale(0.015625)"/>
       <path id="DejaVuSans-75" d="M 544 1381 
L 544 3500 
L 1119 3500 
L 1119 1403 
Q 1119 906 1312 657 
Q 1506 409 1894 409 
Q 2359 409 2629 706 
Q 2900 1003 2900 1516 
L 2900 3500 
L 3475 3500 
L 3475 0 
L 2900 0 
L 2900 538 
Q 2691 219 2414 64 
Q 2138 -91 1772 -91 
Q 1169 -91 856 284 
Q 544 659 544 1381 
z
M 1991 3584 
L 1991 3584 
z
" transform="scale(0.015625)"/>
       <path id="DejaVuSans-72" d="M 2631 2963 
Q 2534 3019 2420 3045 
Q 2306 3072 2169 3072 
Q 1681 3072 1420 2755 
Q 1159 2438 1159 1844 
L 1159 0 
L 581 0 
L 581 3500 
L 1159 3500 
L 1159 2956 
Q 1341 3275 1631 3429 
Q 1922 3584 2338 3584 
Q 2397 3584 2469 3576 
Q 2541 3569 2628 3553 
L 2631 2963 
z
" transform="scale(0.015625)"/>
       <path id="DejaVuSans-76" d="M 191 3500 
L 800 3500 
L 1894 563 
L 2988 3500 
L 3597 3500 
L 2284 0 
L 1503 0 
L 191 3500 
z
" transform="scale(0.015625)"/>
       <path id="DejaVuSans-69" d="M 603 3500 
L 1178 3500 
L 1178 0 
L 603 0 
L 603 3500 
z
M 603 4863 
L 1178 4863 
L 1178 4134 
L 603 4134 
L 603 4863 
z
" transform="scale(0.015625)"/>
       <path id="DejaVuSans-6e" d="M 3513 2113 
L 3513 0 
L 2938 0 
L 2938 2094 
Q 2938 2591 2744 2837 
Q 2550 3084 2163 3084 
Q 1697 3084 1428 2787 
Q 1159 2491 1159 1978 
L 1159 0 
L 581 0 
L 581 3500 
L 1159 3500 
L 1159 2956 
Q 1366 3272 1645 3428 
Q 1925 3584 2291 3584 
Q 2894 3584 3203 3211 
Q 3513 2838 3513 2113 
z
" transform="scale(0.015625)"/>
       <path id="DejaVuSans-67" d="M 2906 1791 
Q 2906 2416 2648 2759 
Q 2391 3103 1925 3103 
Q 1463 3103 1205 2759 
Q 947 2416 947 1791 
Q 947 1169 1205 825 
Q 1463 481 1925 481 
Q 2391 481 2648 825 
Q 2906 1169 2906 1791 
z
M 3481 434 
Q 3481 -459 3084 -895 
Q 2688 -1331 1869 -1331 
Q 1566 -1331 1297 -1286 
Q 1028 -1241 775 -1147 
L 775 -588 
Q 1028 -725 1275 -790 
Q 1522 -856 1778 -856 
Q 2344 -856 2625 -561 
Q 2906 -266 2906 331 
L 2906 616 
Q 2728 306 2450 153 
Q 2172 0 1784 0 
Q 1141 0 747 490 
Q 353 981 353 1791 
Q 353 2603 747 3093 
Q 1141 3584 1784 3584 
Q 2172 3584 2450 3431 
Q 2728 3278 2906 2969 
L 2906 3500 
L 3481 3500 
L 3481 434 
z
" transform="scale(0.015625)"/>
       <path id="DejaVuSans-61" d="M 2194 1759 
Q 1497 1759 1228 1600 
Q 959 1441 959 1056 
Q 959 750 1161 570 
Q 1363 391 1709 391 
Q 2188 391 2477 730 
Q 2766 1069 2766 1631 
L 2766 1759 
L 2194 1759 
z
M 3341 1997 
L 3341 0 
L 2766 0 
L 2766 531 
Q 2569 213 2275 61 
Q 1981 -91 1556 -91 
Q 1019 -91 701 211 
Q 384 513 384 1019 
Q 384 1609 779 1909 
Q 1175 2209 1959 2209 
L 2766 2209 
L 2766 2266 
Q 2766 2663 2505 2880 
Q 2244 3097 1772 3097 
Q 1472 3097 1187 3025 
Q 903 2953 641 2809 
L 641 3341 
Q 956 3463 1253 3523 
Q 1550 3584 1831 3584 
Q 2591 3584 2966 3190 
Q 3341 2797 3341 1997 
z
" transform="scale(0.015625)"/>
       <path id="DejaVuSans-68" d="M 3513 2113 
L 3513 0 
L 2938 0 
L 2938 2094 
Q 2938 2591 2744 2837 
Q 2550 3084 2163 3084 
Q 1697 3084 1428 2787 
Q 1159 2491 1159 1978 
L 1159 0 
L 581 0 
L 581 4863 
L 1159 4863 
L 1159 2956 
Q 1366 3272 1645 3428 
Q 1925 3584 2291 3584 
Q 2894 3584 3203 3211 
Q 3513 2838 3513 2113 
z
" transform="scale(0.015625)"/>
       <path id="DejaVuSans-6d" d="M 3328 2828 
Q 3544 3216 3844 3400 
Q 4144 3584 4550 3584 
Q 5097 3584 5394 3201 
Q 5691 2819 5691 2113 
L 5691 0 
L 5113 0 
L 5113 2094 
Q 5113 2597 4934 2840 
Q 4756 3084 4391 3084 
Q 3944 3084 3684 2787 
Q 3425 2491 3425 1978 
L 3425 0 
L 2847 0 
L 2847 2094 
Q 2847 2600 2669 2842 
Q 2491 3084 2119 3084 
Q 1678 3084 1418 2786 
Q 1159 2488 1159 1978 
L 1159 0 
L 581 0 
L 581 3500 
L 1159 3500 
L 1159 2956 
Q 1356 3278 1631 3431 
Q 1906 3584 2284 3584 
Q 2666 3584 2933 3390 
Q 3200 3197 3328 2828 
z
" transform="scale(0.015625)"/>
       <path id="DejaVuSans-6c" d="M 603 4863 
L 1178 4863 
L 1178 0 
L 603 0 
L 603 4863 
z
" transform="scale(0.015625)"/>
       <path id="DejaVuSans-41" d="M 2188 4044 
L 1331 1722 
L 3047 1722 
L 2188 4044 
z
M 1831 4666 
L 2547 4666 
L 4325 0 
L 3669 0 
L 3244 1197 
L 1141 1197 
L 716 0 
L 50 0 
L 1831 4666 
z
" transform="scale(0.015625)"/>
       <path id="DejaVuSans-4e" d="M 628 4666 
L 1478 4666 
L 3547 763 
L 3547 4666 
L 4159 4666 
L 4159 0 
L 3309 0 
L 1241 3903 
L 1241 0 
L 628 0 
L 628 4666 
z
" transform="scale(0.015625)"/>
       <path id="DejaVuSans-44" d="M 1259 4147 
L 1259 519 
L 2022 519 
Q 2988 519 3436 956 
Q 3884 1394 3884 2338 
Q 3884 3275 3436 3711 
Q 2988 4147 2022 4147 
L 1259 4147 
z
M 628 4666 
L 1925 4666 
Q 3281 4666 3915 4102 
Q 4550 3538 4550 2338 
Q 4550 1131 3912 565 
Q 3275 0 1925 0 
L 628 0 
L 628 4666 
z
" transform="scale(0.015625)"/>
       <path id="DejaVuSans-2d" d="M 313 2009 
L 1997 2009 
L 1997 1497 
L 313 1497 
L 313 2009 
z
" transform="scale(0.015625)"/>
       <path id="DejaVuSans-71" d="M 947 1747 
Q 947 1113 1208 752 
Q 1469 391 1925 391 
Q 2381 391 2643 752 
Q 2906 1113 2906 1747 
Q 2906 2381 2643 2742 
Q 2381 3103 1925 3103 
Q 1469 3103 1208 2742 
Q 947 2381 947 1747 
z
M 2906 525 
Q 2725 213 2448 61 
Q 2172 -91 1784 -91 
Q 1150 -91 751 415 
Q 353 922 353 1747 
Q 353 2572 751 3078 
Q 1150 3584 1784 3584 
Q 2172 3584 2448 3432 
Q 2725 3281 2906 2969 
L 2906 3500 
L 3481 3500 
L 3481 -1331 
L 2906 -1331 
L 2906 525 
z
" transform="scale(0.015625)"/>
      </defs>
      <use xlink:href="#DejaVuSans-6f"/>
      <use xlink:href="#DejaVuSans-62" transform="translate(61.181641 0)"/>
      <use xlink:href="#DejaVuSans-6a" transform="translate(124.658203 0)"/>
      <use xlink:href="#DejaVuSans-65" transform="translate(152.441406 0)"/>
      <use xlink:href="#DejaVuSans-63" transform="translate(213.964844 0)"/>
      <use xlink:href="#DejaVuSans-74" transform="translate(268.945312 0)"/>
      <use xlink:href="#DejaVuSans-73" transform="translate(308.154297 0)"/>
      <use xlink:href="#DejaVuSans-20" transform="translate(360.253906 0)"/>
      <use xlink:href="#DejaVuSans-73" transform="translate(392.041016 0)"/>
      <use xlink:href="#DejaVuSans-75" transform="translate(444.140625 0)"/>
      <use xlink:href="#DejaVuSans-72" transform="translate(507.519531 0)"/>
      <use xlink:href="#DejaVuSans-76" transform="translate(548.632812 0)"/>
      <use xlink:href="#DejaVuSans-69" transform="translate(607.8125 0)"/>
      <use xlink:href="#DejaVuSans-76" transform="translate(635.595703 0)"/>
      <use xlink:href="#DejaVuSans-69" transform="translate(694.775391 0)"/>
      <use xlink:href="#DejaVuSans-6e" transform="translate(722.558594 0)"/>
      <use xlink:href="#DejaVuSans-67" transform="translate(785.9375 0)"/>
      <use xlink:href="#DejaVuSans-20" transform="translate(849.414062 0)"/>
      <use xlink:href="#DejaVuSans-65" transform="translate(881.201172 0)"/>
      <use xlink:href="#DejaVuSans-61" transform="translate(942.724609 0)"/>
      <use xlink:href="#DejaVuSans-63" transform="translate(1004.003906 0)"/>
      <use xlink:href="#DejaVuSans-68" transform="translate(1058.984375 0)"/>
      <use xlink:href="#DejaVuSans-20" transform="translate(1122.363281 0)"/>
      <use xlink:href="#DejaVuSans-63" transform="translate(1154.150391 0)"/>
      <use xlink:href="#DejaVuSans-75" transform="translate(1209.130859 0)"/>
      <use xlink:href="#DejaVuSans-6d" transform="translate(1272.509766 0)"/>
      <use xlink:href="#DejaVuSans-75" transform="translate(1369.921875 0)"/>
      <use xlink:href="#DejaVuSans-6c" transform="translate(1433.300781 0)"/>
      <use xlink:href="#DejaVuSans-61" transform="translate(1461.083984 0)"/>
      <use xlink:href="#DejaVuSans-74" transform="translate(1522.363281 0)"/>
      <use xlink:href="#DejaVuSans-69" transform="translate(1561.572266 0)"/>
      <use xlink:href="#DejaVuSans-76" transform="translate(1589.355469 0)"/>
      <use xlink:href="#DejaVuSans-65" transform="translate(1648.535156 0)"/>
      <use xlink:href="#DejaVuSans-20" transform="translate(1710.058594 0)"/>
      <use xlink:href="#DejaVuSans-41" transform="translate(1741.845703 0)"/>
      <use xlink:href="#DejaVuSans-4e" transform="translate(1810.253906 0)"/>
      <use xlink:href="#DejaVuSans-44" transform="translate(1885.058594 0)"/>
      <use xlink:href="#DejaVuSans-2d" transform="translate(1962.060547 0)"/>
      <use xlink:href="#DejaVuSans-72" transform="translate(1998.144531 0)"/>
      <use xlink:href="#DejaVuSans-65" transform="translate(2037.007812 0)"/>
      <use xlink:href="#DejaVuSans-71" transform="translate(2098.53125 0)"/>
      <use xlink:href="#DejaVuSans-75" transform="translate(2162.007812 0)"/>
      <use xlink:href="#DejaVuSans-69" transform="translate(2225.386719 0)"/>
      <use xlink:href="#DejaVuSans-72" transform="translate(2253.169922 0)"/>
      <use xlink:href="#DejaVuSans-65" transform="translate(2292.033203 0)"/>
      <use xlink:href="#DejaVuSans-6d" transform="translate(2353.556641 0)"/>
      <use xlink:href="#DejaVuSans-65" transform="translate(2450.96875 0)"/>
      <use xlink:href="#DejaVuSans-6e" transform="translate(2512.492188 0)"/>
      <use xlink:href="#DejaVuSans-74" transform="translate(2575.871094 0)"/>
     </g>
    </g>
   </g>
   <g id="matplotlib.axis_2">
    <g id="ytick_1">
     <g id="line2d_19"/>
     <g id="text_11">
      <!-- spectrum -->
      <g transform="translate(44.569125 59.832951) scale(0.09 -0.09)">
       <defs>
        <path id="DejaVuSans-70" d="M 1159 525 
L 1159 -1331 
L 581 -1331 
L 581 3500 
L 1159 3500 
L 1159 2969 
Q 1341 3281 1617 3432 
Q 1894 3584 2278 3584 
Q 2916 3584 3314 3078 
Q 3713 2572 3713 1747 
Q 3713 922 3314 415 
Q 2916 -91 2278 -91 
Q 1894 -91 1617 61 
Q 1341 213 1159 525 
z
M 3116 1747 
Q 3116 2381 2855 2742 
Q 2594 3103 2138 3103 
Q 1681 3103 1420 2742 
Q 1159 2381 1159 1747 
Q 1159 1113 1420 752 
Q 1681 391 2138 391 
Q 2594 391 2855 752 
Q 3116 1113 3116 1747 
z
" transform="scale(0.015625)"/>
       </defs>
       <use xlink:href="#DejaVuSans-73"/>
       <use xlink:href="#DejaVuSans-70" transform="translate(52.099609 0)"/>
       <use xlink:href="#DejaVuSans-65" transform="translate(115.576172 0)"/>
       <use xlink:href="#DejaVuSans-63" transform="translate(177.099609 0)"/>
       <use xlink:href="#DejaVuSans-74" transform="translate(232.080078 0)"/>
       <use xlink:href="#DejaVuSans-72" transform="translate(271.289062 0)"/>
       <use xlink:href="#DejaVuSans-75" transform="translate(312.402344 0)"/>
       <use xlink:href="#DejaVuSans-6d" transform="translate(375.78125 0)"/>
      </g>
     </g>
    </g>
    <g id="ytick_2">
     <g id="line2d_20"/>
     <g id="text_12">
      <!-- + diameter_best -->
      <g transform="translate(11.986312 102.357061) scale(0.09 -0.09)">
       <defs>
        <path id="DejaVuSans-2b" d="M 2944 4013 
L 2944 2272 
L 4684 2272 
L 4684 1741 
L 2944 1741 
L 2944 0 
L 2419 0 
L 2419 1741 
L 678 1741 
L 678 2272 
L 2419 2272 
L 2419 4013 
L 2944 4013 
z
" transform="scale(0.015625)"/>
        <path id="DejaVuSans-64" d="M 2906 2969 
L 2906 4863 
L 3481 4863 
L 3481 0 
L 2906 0 
L 2906 525 
Q 2725 213 2448 61 
Q 2172 -91 1784 -91 
Q 1150 -91 751 415 
Q 353 922 353 1747 
Q 353 2572 751 3078 
Q 1150 3584 1784 3584 
Q 2172 3584 2448 3432 
Q 2725 3281 2906 2969 
z
M 947 1747 
Q 947 1113 1208 752 
Q 1469 391 1925 391 
Q 2381 391 2643 752 
Q 2906 1113 2906 1747 
Q 2906 2381 2643 2742 
Q 2381 3103 1925 3103 
Q 1469 3103 1208 2742 
Q 947 2381 947 1747 
z
" transform="scale(0.015625)"/>
        <path id="DejaVuSans-5f" d="M 3263 -1063 
L 3263 -1509 
L -63 -1509 
L -63 -1063 
L 3263 -1063 
z
" transform="scale(0.015625)"/>
       </defs>
       <use xlink:href="#DejaVuSans-2b"/>
       <use xlink:href="#DejaVuSans-20" transform="translate(83.789062 0)"/>
       <use xlink:href="#DejaVuSans-64" transform="translate(115.576172 0)"/>
       <use xlink:href="#DejaVuSans-69" transform="translate(179.052734 0)"/>
       <use xlink:href="#DejaVuSans-61" transform="translate(206.835938 0)"/>
       <use xlink:href="#DejaVuSans-6d" transform="translate(268.115234 0)"/>
       <use xlink:href="#DejaVuSans-65" transform="translate(365.527344 0)"/>
       <use xlink:href="#DejaVuSans-74" transform="translate(427.050781 0)"/>
       <use xlink:href="#DejaVuSans-65" transform="translate(466.259766 0)"/>
       <use xlink:href="#DejaVuSans-72" transform="translate(527.783203 0)"/>
       <use xlink:href="#DejaVuSans-5f" transform="translate(568.896484 0)"/>
       <use xlink:href="#DejaVuSans-62" transform="translate(618.896484 0)"/>
       <use xlink:href="#DejaVuSans-65" transform="translate(682.373047 0)"/>
       <use xlink:href="#DejaVuSans-73" transform="translate(743.896484 0)"/>
       <use xlink:href="#DejaVuSans-74" transform="translate(795.996094 0)"/>
      </g>
     </g>
    </g>
    <g id="ytick_3">
     <g id="line2d_21"/>
     <g id="text_13">
      <!-- + family -->
      <g transform="translate(48.976312 144.881172) scale(0.09 -0.09)">
       <defs>
        <path id="DejaVuSans-66" d="M 2375 4863 
L 2375 4384 
L 1825 4384 
Q 1516 4384 1395 4259 
Q 1275 4134 1275 3809 
L 1275 3500 
L 2222 3500 
L 2222 3053 
L 1275 3053 
L 1275 0 
L 697 0 
L 697 3053 
L 147 3053 
L 147 3500 
L 697 3500 
L 697 3744 
Q 697 4328 969 4595 
Q 1241 4863 1831 4863 
L 2375 4863 
z
" transform="scale(0.015625)"/>
        <path id="DejaVuSans-79" d="M 2059 -325 
Q 1816 -950 1584 -1140 
Q 1353 -1331 966 -1331 
L 506 -1331 
L 506 -850 
L 844 -850 
Q 1081 -850 1212 -737 
Q 1344 -625 1503 -206 
L 1606 56 
L 191 3500 
L 800 3500 
L 1894 763 
L 2988 3500 
L 3597 3500 
L 2059 -325 
z
" transform="scale(0.015625)"/>
       </defs>
       <use xlink:href="#DejaVuSans-2b"/>
       <use xlink:href="#DejaVuSans-20" transform="translate(83.789062 0)"/>
       <use xlink:href="#DejaVuSans-66" transform="translate(115.576172 0)"/>
       <use xlink:href="#DejaVuSans-61" transform="translate(150.78125 0)"/>
       <use xlink:href="#DejaVuSans-6d" transform="translate(212.060547 0)"/>
       <use xlink:href="#DejaVuSans-69" transform="translate(309.472656 0)"/>
       <use xlink:href="#DejaVuSans-6c" transform="translate(337.255859 0)"/>
       <use xlink:href="#DejaVuSans-79" transform="translate(365.039062 0)"/>
      </g>
     </g>
    </g>
    <g id="ytick_4">
     <g id="line2d_22"/>
     <g id="text_14">
      <!-- + period_best -->
      <g transform="translate(24.113812 187.405283) scale(0.09 -0.09)">
       <use xlink:href="#DejaVuSans-2b"/>
       <use xlink:href="#DejaVuSans-20" transform="translate(83.789062 0)"/>
       <use xlink:href="#DejaVuSans-70" transform="translate(115.576172 0)"/>
       <use xlink:href="#DejaVuSans-65" transform="translate(179.052734 0)"/>
       <use xlink:href="#DejaVuSans-72" transform="translate(240.576172 0)"/>
       <use xlink:href="#DejaVuSans-69" transform="translate(281.689453 0)"/>
       <use xlink:href="#DejaVuSans-6f" transform="translate(309.472656 0)"/>
       <use xlink:href="#DejaVuSans-64" transform="translate(370.654297 0)"/>
       <use xlink:href="#DejaVuSans-5f" transform="translate(434.130859 0)"/>
       <use xlink:href="#DejaVuSans-62" transform="translate(484.130859 0)"/>
       <use xlink:href="#DejaVuSans-65" transform="translate(547.607422 0)"/>
       <use xlink:href="#DejaVuSans-73" transform="translate(609.130859 0)"/>
       <use xlink:href="#DejaVuSans-74" transform="translate(661.230469 0)"/>
      </g>
     </g>
    </g>
    <g id="ytick_5">
     <g id="line2d_23"/>
     <g id="text_15">
      <!-- + taxon_any -->
      <g transform="translate(30.408187 229.804237) scale(0.09 -0.09)">
       <defs>
        <path id="DejaVuSans-78" d="M 3513 3500 
L 2247 1797 
L 3578 0 
L 2900 0 
L 1881 1375 
L 863 0 
L 184 0 
L 1544 1831 
L 300 3500 
L 978 3500 
L 1906 2253 
L 2834 3500 
L 3513 3500 
z
" transform="scale(0.015625)"/>
       </defs>
       <use xlink:href="#DejaVuSans-2b"/>
       <use xlink:href="#DejaVuSans-20" transform="translate(83.789062 0)"/>
       <use xlink:href="#DejaVuSans-74" transform="translate(115.576172 0)"/>
       <use xlink:href="#DejaVuSans-61" transform="translate(154.785156 0)"/>
       <use xlink:href="#DejaVuSans-78" transform="translate(216.064453 0)"/>
       <use xlink:href="#DejaVuSans-6f" transform="translate(272.119141 0)"/>
       <use xlink:href="#DejaVuSans-6e" transform="translate(333.300781 0)"/>
       <use xlink:href="#DejaVuSans-5f" transform="translate(396.679688 0)"/>
       <use xlink:href="#DejaVuSans-61" transform="translate(446.679688 0)"/>
       <use xlink:href="#DejaVuSans-6e" transform="translate(507.958984 0)"/>
       <use xlink:href="#DejaVuSans-79" transform="translate(571.337891 0)"/>
      </g>
     </g>
    </g>
   </g>
   <g id="patch_3">
    <path d="M 90.656 249.047875 
L 510.696 249.047875 
" style="fill: none; stroke: #888888; stroke-width: 0.8; stroke-linejoin: miter; stroke-linecap: square"/>
   </g>
   <g id="patch_4">
    <path d="M 90.656 69.170887 
L 465.691714 69.170887 
L 465.691714 43.65642 
L 90.656 43.65642 
z
" clip-path="url(#pc59b5e1d7a)" style="fill: #b9bcc0"/>
   </g>
   <g id="patch_5">
    <path d="M 90.656 111.694998 
L 350.054074 111.694998 
L 350.054074 86.180531 
L 90.656 86.180531 
z
" clip-path="url(#pc59b5e1d7a)" style="fill: #b9bcc0"/>
   </g>
   <g id="patch_6">
    <path d="M 90.656 154.219108 
L 194.098628 154.219108 
L 194.098628 128.704642 
L 90.656 128.704642 
z
" clip-path="url(#pc59b5e1d7a)" style="fill: #b9bcc0"/>
   </g>
   <g id="patch_7">
    <path d="M 90.656 196.743219 
L 131.814166 196.743219 
L 131.814166 171.228752 
L 90.656 171.228752 
z
" clip-path="url(#pc59b5e1d7a)" style="fill: #b9bcc0"/>
   </g>
   <g id="patch_8">
    <path d="M 90.656 239.26733 
L 94.642831 239.26733 
L 94.642831 213.752863 
L 90.656 213.752863 
z
" clip-path="url(#pc59b5e1d7a)" style="fill: #4059ad"/>
   </g>
   <g id="text_16">
    <!-- 19,190 -->
    <g style="fill: #2b2b2b" transform="translate(470.192143 58.897091) scale(0.09 -0.09)">
     <defs>
      <path id="DejaVuSans-39" d="M 703 97 
L 703 672 
Q 941 559 1184 500 
Q 1428 441 1663 441 
Q 2288 441 2617 861 
Q 2947 1281 2994 2138 
Q 2813 1869 2534 1725 
Q 2256 1581 1919 1581 
Q 1219 1581 811 2004 
Q 403 2428 403 3163 
Q 403 3881 828 4315 
Q 1253 4750 1959 4750 
Q 2769 4750 3195 4129 
Q 3622 3509 3622 2328 
Q 3622 1225 3098 567 
Q 2575 -91 1691 -91 
Q 1453 -91 1209 -44 
Q 966 3 703 97 
z
M 1959 2075 
Q 2384 2075 2632 2365 
Q 2881 2656 2881 3163 
Q 2881 3666 2632 3958 
Q 2384 4250 1959 4250 
Q 1534 4250 1286 3958 
Q 1038 3666 1038 3163 
Q 1038 2656 1286 2365 
Q 1534 2075 1959 2075 
z
" transform="scale(0.015625)"/>
      <path id="DejaVuSans-2c" d="M 750 794 
L 1409 794 
L 1409 256 
L 897 -744 
L 494 -744 
L 750 256 
L 750 794 
z
" transform="scale(0.015625)"/>
     </defs>
     <use xlink:href="#DejaVuSans-31"/>
     <use xlink:href="#DejaVuSans-39" transform="translate(63.623047 0)"/>
     <use xlink:href="#DejaVuSans-2c" transform="translate(127.246094 0)"/>
     <use xlink:href="#DejaVuSans-31" transform="translate(159.033203 0)"/>
     <use xlink:href="#DejaVuSans-39" transform="translate(222.65625 0)"/>
     <use xlink:href="#DejaVuSans-30" transform="translate(286.279297 0)"/>
    </g>
   </g>
   <g id="text_17">
    <!-- 13,273 -->
    <g style="fill: #2b2b2b" transform="translate(354.554502 101.421202) scale(0.09 -0.09)">
     <defs>
      <path id="DejaVuSans-33" d="M 2597 2516 
Q 3050 2419 3304 2112 
Q 3559 1806 3559 1356 
Q 3559 666 3084 287 
Q 2609 -91 1734 -91 
Q 1441 -91 1130 -33 
Q 819 25 488 141 
L 488 750 
Q 750 597 1062 519 
Q 1375 441 1716 441 
Q 2309 441 2620 675 
Q 2931 909 2931 1356 
Q 2931 1769 2642 2001 
Q 2353 2234 1838 2234 
L 1294 2234 
L 1294 2753 
L 1863 2753 
Q 2328 2753 2575 2939 
Q 2822 3125 2822 3475 
Q 2822 3834 2567 4026 
Q 2313 4219 1838 4219 
Q 1578 4219 1281 4162 
Q 984 4106 628 3988 
L 628 4550 
Q 988 4650 1302 4700 
Q 1616 4750 1894 4750 
Q 2613 4750 3031 4423 
Q 3450 4097 3450 3541 
Q 3450 3153 3228 2886 
Q 3006 2619 2597 2516 
z
" transform="scale(0.015625)"/>
     </defs>
     <use xlink:href="#DejaVuSans-31"/>
     <use xlink:href="#DejaVuSans-33" transform="translate(63.623047 0)"/>
     <use xlink:href="#DejaVuSans-2c" transform="translate(127.246094 0)"/>
     <use xlink:href="#DejaVuSans-32" transform="translate(159.033203 0)"/>
     <use xlink:href="#DejaVuSans-37" transform="translate(222.65625 0)"/>
     <use xlink:href="#DejaVuSans-33" transform="translate(286.279297 0)"/>
    </g>
   </g>
   <g id="text_18">
    <!-- 5,293 -->
    <g style="fill: #2b2b2b" transform="translate(198.599057 143.945312) scale(0.09 -0.09)">
     <use xlink:href="#DejaVuSans-35"/>
     <use xlink:href="#DejaVuSans-2c" transform="translate(63.623047 0)"/>
     <use xlink:href="#DejaVuSans-32" transform="translate(95.410156 0)"/>
     <use xlink:href="#DejaVuSans-39" transform="translate(159.033203 0)"/>
     <use xlink:href="#DejaVuSans-33" transform="translate(222.65625 0)"/>
    </g>
   </g>
   <g id="text_19">
    <!-- 2,106 -->
    <g style="fill: #2b2b2b" transform="translate(136.314595 186.469423) scale(0.09 -0.09)">
     <defs>
      <path id="DejaVuSans-36" d="M 2113 2584 
Q 1688 2584 1439 2293 
Q 1191 2003 1191 1497 
Q 1191 994 1439 701 
Q 1688 409 2113 409 
Q 2538 409 2786 701 
Q 3034 994 3034 1497 
Q 3034 2003 2786 2293 
Q 2538 2584 2113 2584 
z
M 3366 4563 
L 3366 3988 
Q 3128 4100 2886 4159 
Q 2644 4219 2406 4219 
Q 1781 4219 1451 3797 
Q 1122 3375 1075 2522 
Q 1259 2794 1537 2939 
Q 1816 3084 2150 3084 
Q 2853 3084 3261 2657 
Q 3669 2231 3669 1497 
Q 3669 778 3244 343 
Q 2819 -91 2113 -91 
Q 1303 -91 875 529 
Q 447 1150 447 2328 
Q 447 3434 972 4092 
Q 1497 4750 2381 4750 
Q 2619 4750 2861 4703 
Q 3103 4656 3366 4563 
z
" transform="scale(0.015625)"/>
     </defs>
     <use xlink:href="#DejaVuSans-32"/>
     <use xlink:href="#DejaVuSans-2c" transform="translate(63.623047 0)"/>
     <use xlink:href="#DejaVuSans-31" transform="translate(95.410156 0)"/>
     <use xlink:href="#DejaVuSans-30" transform="translate(159.033203 0)"/>
     <use xlink:href="#DejaVuSans-36" transform="translate(222.65625 0)"/>
    </g>
   </g>
   <g id="text_20">
    <!-- 204 -->
    <g style="fill: #2b2b2b" transform="translate(99.14326 228.993534) scale(0.09 -0.09)">
     <defs>
      <path id="DejaVuSans-34" d="M 2419 4116 
L 825 1625 
L 2419 1625 
L 2419 4116 
z
M 2253 4666 
L 3047 4666 
L 3047 1625 
L 3713 1625 
L 3713 1100 
L 3047 1100 
L 3047 0 
L 2419 0 
L 2419 1100 
L 313 1100 
L 313 1709 
L 2253 4666 
z
" transform="scale(0.015625)"/>
     </defs>
     <use xlink:href="#DejaVuSans-32"/>
     <use xlink:href="#DejaVuSans-30" transform="translate(63.623047 0)"/>
     <use xlink:href="#DejaVuSans-34" transform="translate(127.246094 0)"/>
    </g>
   </g>
   <g id="patch_9">
    <path d="M 199.190401 212.030584 
Q 147.907278 219.133137 97.620872 226.097647 
" style="fill: none; stroke: #c1666b; stroke-width: 0.9; stroke-linecap: round"/>
    <path d="M 101.221944 227.315136 
L 97.620872 226.097647 
L 100.755507 223.947283 
" style="fill: none; stroke: #c1666b; stroke-width: 0.9; stroke-linecap: round"/>
   </g>
   <g id="text_21">
    <!-- taxonomy cut: -1,902 -->
    <g style="fill: #c1666b" transform="translate(203.166714 202.108517) scale(0.085 -0.085)">
     <defs>
      <path id="DejaVuSans-3a" d="M 750 794 
L 1409 794 
L 1409 0 
L 750 0 
L 750 794 
z
M 750 3309 
L 1409 3309 
L 1409 2516 
L 750 2516 
L 750 3309 
z
" transform="scale(0.015625)"/>
     </defs>
     <use xlink:href="#DejaVuSans-74"/>
     <use xlink:href="#DejaVuSans-61" transform="translate(39.208984 0)"/>
     <use xlink:href="#DejaVuSans-78" transform="translate(100.488281 0)"/>
     <use xlink:href="#DejaVuSans-6f" transform="translate(156.542969 0)"/>
     <use xlink:href="#DejaVuSans-6e" transform="translate(217.724609 0)"/>
     <use xlink:href="#DejaVuSans-6f" transform="translate(281.103516 0)"/>
     <use xlink:href="#DejaVuSans-6d" transform="translate(342.285156 0)"/>
     <use xlink:href="#DejaVuSans-79" transform="translate(439.697266 0)"/>
     <use xlink:href="#DejaVuSans-20" transform="translate(498.876953 0)"/>
     <use xlink:href="#DejaVuSans-63" transform="translate(530.664062 0)"/>
     <use xlink:href="#DejaVuSans-75" transform="translate(585.644531 0)"/>
     <use xlink:href="#DejaVuSans-74" transform="translate(649.023438 0)"/>
     <use xlink:href="#DejaVuSans-3a" transform="translate(688.232422 0)"/>
     <use xlink:href="#DejaVuSans-20" transform="translate(721.923828 0)"/>
     <use xlink:href="#DejaVuSans-2d" transform="translate(753.710938 0)"/>
     <use xlink:href="#DejaVuSans-31" transform="translate(789.794922 0)"/>
     <use xlink:href="#DejaVuSans-2c" transform="translate(853.417969 0)"/>
     <use xlink:href="#DejaVuSans-39" transform="translate(885.205078 0)"/>
     <use xlink:href="#DejaVuSans-30" transform="translate(948.828125 0)"/>
     <use xlink:href="#DejaVuSans-32" transform="translate(1012.451172 0)"/>
    </g>
    <!-- (the binding constraint) -->
    <g style="fill: #c1666b" transform="translate(203.166714 211.626658) scale(0.085 -0.085)">
     <defs>
      <path id="DejaVuSans-28" d="M 1984 4856 
Q 1566 4138 1362 3434 
Q 1159 2731 1159 2009 
Q 1159 1288 1364 580 
Q 1569 -128 1984 -844 
L 1484 -844 
Q 1016 -109 783 600 
Q 550 1309 550 2009 
Q 550 2706 781 3412 
Q 1013 4119 1484 4856 
L 1984 4856 
z
" transform="scale(0.015625)"/>
      <path id="DejaVuSans-29" d="M 513 4856 
L 1013 4856 
Q 1481 4119 1714 3412 
Q 1947 2706 1947 2009 
Q 1947 1309 1714 600 
Q 1481 -109 1013 -844 
L 513 -844 
Q 928 -128 1133 580 
Q 1338 1288 1338 2009 
Q 1338 2731 1133 3434 
Q 928 4138 513 4856 
z
" transform="scale(0.015625)"/>
     </defs>
     <use xlink:href="#DejaVuSans-28"/>
     <use xlink:href="#DejaVuSans-74" transform="translate(39.013672 0)"/>
     <use xlink:href="#DejaVuSans-68" transform="translate(78.222656 0)"/>
     <use xlink:href="#DejaVuSans-65" transform="translate(141.601562 0)"/>
     <use xlink:href="#DejaVuSans-20" transform="translate(203.125 0)"/>
     <use xlink:href="#DejaVuSans-62" transform="translate(234.912109 0)"/>
     <use xlink:href="#DejaVuSans-69" transform="translate(298.388672 0)"/>
     <use xlink:href="#DejaVuSans-6e" transform="translate(326.171875 0)"/>
     <use xlink:href="#DejaVuSans-64" transform="translate(389.550781 0)"/>
     <use xlink:href="#DejaVuSans-69" transform="translate(453.027344 0)"/>
     <use xlink:href="#DejaVuSans-6e" transform="translate(480.810547 0)"/>
     <use xlink:href="#DejaVuSans-67" transform="translate(544.189453 0)"/>
     <use xlink:href="#DejaVuSans-20" transform="translate(607.666016 0)"/>
     <use xlink:href="#DejaVuSans-63" transform="translate(639.453125 0)"/>
     <use xlink:href="#DejaVuSans-6f" transform="translate(694.433594 0)"/>
     <use xlink:href="#DejaVuSans-6e" transform="translate(755.615234 0)"/>
     <use xlink:href="#DejaVuSans-73" transform="translate(818.994141 0)"/>
     <use xlink:href="#DejaVuSans-74" transform="translate(871.09375 0)"/>
     <use xlink:href="#DejaVuSans-72" transform="translate(910.302734 0)"/>
     <use xlink:href="#DejaVuSans-61" transform="translate(951.416016 0)"/>
     <use xlink:href="#DejaVuSans-69" transform="translate(1012.695312 0)"/>
     <use xlink:href="#DejaVuSans-6e" transform="translate(1040.478516 0)"/>
     <use xlink:href="#DejaVuSans-74" transform="translate(1103.857422 0)"/>
     <use xlink:href="#DejaVuSans-29" transform="translate(1143.066406 0)"/>
    </g>
   </g>
   <g id="text_22">
    <!-- Why only 204 complete profiles - the completeness funnel -->
    <g style="fill: #2b2b2b" transform="translate(90.656 15.558281) scale(0.11 -0.11)">
     <defs>
      <path id="DejaVuSans-57" d="M 213 4666 
L 850 4666 
L 1831 722 
L 2809 4666 
L 3519 4666 
L 4500 722 
L 5478 4666 
L 6119 4666 
L 4947 0 
L 4153 0 
L 3169 4050 
L 2175 0 
L 1381 0 
L 213 4666 
z
" transform="scale(0.015625)"/>
     </defs>
     <use xlink:href="#DejaVuSans-57"/>
     <use xlink:href="#DejaVuSans-68" transform="translate(98.876953 0)"/>
     <use xlink:href="#DejaVuSans-79" transform="translate(162.255859 0)"/>
     <use xlink:href="#DejaVuSans-20" transform="translate(221.435547 0)"/>
     <use xlink:href="#DejaVuSans-6f" transform="translate(253.222656 0)"/>
     <use xlink:href="#DejaVuSans-6e" transform="translate(314.404297 0)"/>
     <use xlink:href="#DejaVuSans-6c" transform="translate(377.783203 0)"/>
     <use xlink:href="#DejaVuSans-79" transform="translate(405.566406 0)"/>
     <use xlink:href="#DejaVuSans-20" transform="translate(464.746094 0)"/>
     <use xlink:href="#DejaVuSans-32" transform="translate(496.533203 0)"/>
     <use xlink:href="#DejaVuSans-30" transform="translate(560.15625 0)"/>
     <use xlink:href="#DejaVuSans-34" transform="translate(623.779297 0)"/>
     <use xlink:href="#DejaVuSans-20" transform="translate(687.402344 0)"/>
     <use xlink:href="#DejaVuSans-63" transform="translate(719.189453 0)"/>
     <use xlink:href="#DejaVuSans-6f" transform="translate(774.169922 0)"/>
     <use xlink:href="#DejaVuSans-6d" transform="translate(835.351562 0)"/>
     <use xlink:href="#DejaVuSans-70" transform="translate(932.763672 0)"/>
     <use xlink:href="#DejaVuSans-6c" transform="translate(996.240234 0)"/>
     <use xlink:href="#DejaVuSans-65" transform="translate(1024.023438 0)"/>
     <use xlink:href="#DejaVuSans-74" transform="translate(1085.546875 0)"/>
     <use xlink:href="#DejaVuSans-65" transform="translate(1124.755859 0)"/>
     <use xlink:href="#DejaVuSans-20" transform="translate(1186.279297 0)"/>
     <use xlink:href="#DejaVuSans-70" transform="translate(1218.066406 0)"/>
     <use xlink:href="#DejaVuSans-72" transform="translate(1281.542969 0)"/>
     <use xlink:href="#DejaVuSans-6f" transform="translate(1320.40625 0)"/>
     <use xlink:href="#DejaVuSans-66" transform="translate(1381.587891 0)"/>
     <use xlink:href="#DejaVuSans-69" transform="translate(1416.792969 0)"/>
     <use xlink:href="#DejaVuSans-6c" transform="translate(1444.576172 0)"/>
     <use xlink:href="#DejaVuSans-65" transform="translate(1472.359375 0)"/>
     <use xlink:href="#DejaVuSans-73" transform="translate(1533.882812 0)"/>
     <use xlink:href="#DejaVuSans-20" transform="translate(1585.982422 0)"/>
     <use xlink:href="#DejaVuSans-2d" transform="translate(1617.769531 0)"/>
     <use xlink:href="#DejaVuSans-20" transform="translate(1653.853516 0)"/>
     <use xlink:href="#DejaVuSans-74" transform="translate(1685.640625 0)"/>
     <use xlink:href="#DejaVuSans-68" transform="translate(1724.849609 0)"/>
     <use xlink:href="#DejaVuSans-65" transform="translate(1788.228516 0)"/>
     <use xlink:href="#DejaVuSans-20" transform="translate(1849.751953 0)"/>
     <use xlink:href="#DejaVuSans-63" transform="translate(1881.539062 0)"/>
     <use xlink:href="#DejaVuSans-6f" transform="translate(1936.519531 0)"/>
     <use xlink:href="#DejaVuSans-6d" transform="translate(1997.701172 0)"/>
     <use xlink:href="#DejaVuSans-70" transform="translate(2095.113281 0)"/>
     <use xlink:href="#DejaVuSans-6c" transform="translate(2158.589844 0)"/>
     <use xlink:href="#DejaVuSans-65" transform="translate(2186.373047 0)"/>
     <use xlink:href="#DejaVuSans-74" transform="translate(2247.896484 0)"/>
     <use xlink:href="#DejaVuSans-65" transform="translate(2287.105469 0)"/>
     <use xlink:href="#DejaVuSans-6e" transform="translate(2348.628906 0)"/>
     <use xlink:href="#DejaVuSans-65" transform="translate(2412.007812 0)"/>
     <use xlink:href="#DejaVuSans-73" transform="translate(2473.53125 0)"/>
     <use xlink:href="#DejaVuSans-73" transform="translate(2525.630859 0)"/>
     <use xlink:href="#DejaVuSans-20" transform="translate(2577.730469 0)"/>
     <use xlink:href="#DejaVuSans-66" transform="translate(2609.517578 0)"/>
     <use xlink:href="#DejaVuSans-75" transform="translate(2644.722656 0)"/>
     <use xlink:href="#DejaVuSans-6e" transform="translate(2708.101562 0)"/>
     <use xlink:href="#DejaVuSans-6e" transform="translate(2771.480469 0)"/>
     <use xlink:href="#DejaVuSans-65" transform="translate(2834.859375 0)"/>
     <use xlink:href="#DejaVuSans-6c" transform="translate(2896.382812 0)"/>
    </g>
    <!-- (19,190-object spectral core) -->
    <g style="fill: #2b2b2b" transform="translate(90.656 27.875875) scale(0.11 -0.11)">
     <use xlink:href="#DejaVuSans-28"/>
     <use xlink:href="#DejaVuSans-31" transform="translate(39.013672 0)"/>
     <use xlink:href="#DejaVuSans-39" transform="translate(102.636719 0)"/>
     <use xlink:href="#DejaVuSans-2c" transform="translate(166.259766 0)"/>
     <use xlink:href="#DejaVuSans-31" transform="translate(198.046875 0)"/>
     <use xlink:href="#DejaVuSans-39" transform="translate(261.669922 0)"/>
     <use xlink:href="#DejaVuSans-30" transform="translate(325.292969 0)"/>
     <use xlink:href="#DejaVuSans-2d" transform="translate(388.916016 0)"/>
     <use xlink:href="#DejaVuSans-6f" transform="translate(426.875 0)"/>
     <use xlink:href="#DejaVuSans-62" transform="translate(488.056641 0)"/>
     <use xlink:href="#DejaVuSans-6a" transform="translate(551.533203 0)"/>
     <use xlink:href="#DejaVuSans-65" transform="translate(579.316406 0)"/>
     <use xlink:href="#DejaVuSans-63" transform="translate(640.839844 0)"/>
     <use xlink:href="#DejaVuSans-74" transform="translate(695.820312 0)"/>
     <use xlink:href="#DejaVuSans-20" transform="translate(735.029297 0)"/>
     <use xlink:href="#DejaVuSans-73" transform="translate(766.816406 0)"/>
     <use xlink:href="#DejaVuSans-70" transform="translate(818.916016 0)"/>
     <use xlink:href="#DejaVuSans-65" transform="translate(882.392578 0)"/>
     <use xlink:href="#DejaVuSans-63" transform="translate(943.916016 0)"/>
     <use xlink:href="#DejaVuSans-74" transform="translate(998.896484 0)"/>
     <use xlink:href="#DejaVuSans-72" transform="translate(1038.105469 0)"/>
     <use xlink:href="#DejaVuSans-61" transform="translate(1079.21875 0)"/>
     <use xlink:href="#DejaVuSans-6c" transform="translate(1140.498047 0)"/>
     <use xlink:href="#DejaVuSans-20" transform="translate(1168.28125 0)"/>
     <use xlink:href="#DejaVuSans-63" transform="translate(1200.068359 0)"/>
     <use xlink:href="#DejaVuSans-6f" transform="translate(1255.048828 0)"/>
     <use xlink:href="#DejaVuSans-72" transform="translate(1316.230469 0)"/>
     <use xlink:href="#DejaVuSans-65" transform="translate(1355.09375 0)"/>
     <use xlink:href="#DejaVuSans-29" transform="translate(1416.617188 0)"/>
    </g>
   </g>
  </g>
  <g id="text_23">
   <!-- Each step adds one AND-requirement to the previous survivors; order ends on taxonomy, the binding constraint. Retrieval July 2026. -->
   <g style="fill: #666666" transform="translate(7.2 290.747875) scale(0.062 -0.062)">
    <defs>
     <path id="DejaVuSans-45" d="M 628 4666 
L 3578 4666 
L 3578 4134 
L 1259 4134 
L 1259 2753 
L 3481 2753 
L 3481 2222 
L 1259 2222 
L 1259 531 
L 3634 531 
L 3634 0 
L 628 0 
L 628 4666 
z
" transform="scale(0.015625)"/>
     <path id="DejaVuSans-3b" d="M 750 3309 
L 1409 3309 
L 1409 2516 
L 750 2516 
L 750 3309 
z
M 750 794 
L 1409 794 
L 1409 256 
L 897 -744 
L 494 -744 
L 750 256 
L 750 794 
z
" transform="scale(0.015625)"/>
     <path id="DejaVuSans-2e" d="M 684 794 
L 1344 794 
L 1344 0 
L 684 0 
L 684 794 
z
" transform="scale(0.015625)"/>
     <path id="DejaVuSans-52" d="M 2841 2188 
Q 3044 2119 3236 1894 
Q 3428 1669 3622 1275 
L 4263 0 
L 3584 0 
L 2988 1197 
Q 2756 1666 2539 1819 
Q 2322 1972 1947 1972 
L 1259 1972 
L 1259 0 
L 628 0 
L 628 4666 
L 2053 4666 
Q 2853 4666 3247 4331 
Q 3641 3997 3641 3322 
Q 3641 2881 3436 2590 
Q 3231 2300 2841 2188 
z
M 1259 4147 
L 1259 2491 
L 2053 2491 
Q 2509 2491 2742 2702 
Q 2975 2913 2975 3322 
Q 2975 3731 2742 3939 
Q 2509 4147 2053 4147 
L 1259 4147 
z
" transform="scale(0.015625)"/>
     <path id="DejaVuSans-4a" d="M 628 4666 
L 1259 4666 
L 1259 325 
Q 1259 -519 939 -900 
Q 619 -1281 -91 -1281 
L -331 -1281 
L -331 -750 
L -134 -750 
Q 284 -750 456 -515 
Q 628 -281 628 325 
L 628 4666 
z
" transform="scale(0.015625)"/>
    </defs>
    <use xlink:href="#DejaVuSans-45"/>
    <use xlink:href="#DejaVuSans-61" transform="translate(63.183594 0)"/>
    <use xlink:href="#DejaVuSans-63" transform="translate(124.462891 0)"/>
    <use xlink:href="#DejaVuSans-68" transform="translate(179.443359 0)"/>
    <use xlink:href="#DejaVuSans-20" transform="translate(242.822266 0)"/>
    <use xlink:href="#DejaVuSans-73" transform="translate(274.609375 0)"/>
    <use xlink:href="#DejaVuSans-74" transform="translate(326.708984 0)"/>
    <use xlink:href="#DejaVuSans-65" transform="translate(365.917969 0)"/>
    <use xlink:href="#DejaVuSans-70" transform="translate(427.441406 0)"/>
    <use xlink:href="#DejaVuSans-20" transform="translate(490.917969 0)"/>
    <use xlink:href="#DejaVuSans-61" transform="translate(522.705078 0)"/>
    <use xlink:href="#DejaVuSans-64" transform="translate(583.984375 0)"/>
    <use xlink:href="#DejaVuSans-64" transform="translate(647.460938 0)"/>
    <use xlink:href="#DejaVuSans-73" transform="translate(710.9375 0)"/>
    <use xlink:href="#DejaVuSans-20" transform="translate(763.037109 0)"/>
    <use xlink:href="#DejaVuSans-6f" transform="translate(794.824219 0)"/>
    <use xlink:href="#DejaVuSans-6e" transform="translate(856.005859 0)"/>
    <use xlink:href="#DejaVuSans-65" transform="translate(919.384766 0)"/>
    <use xlink:href="#DejaVuSans-20" transform="translate(980.908203 0)"/>
    <use xlink:href="#DejaVuSans-41" transform="translate(1012.695312 0)"/>
    <use xlink:href="#DejaVuSans-4e" transform="translate(1081.103516 0)"/>
    <use xlink:href="#DejaVuSans-44" transform="translate(1155.908203 0)"/>
    <use xlink:href="#DejaVuSans-2d" transform="translate(1232.910156 0)"/>
    <use xlink:href="#DejaVuSans-72" transform="translate(1268.994141 0)"/>
    <use xlink:href="#DejaVuSans-65" transform="translate(1307.857422 0)"/>
    <use xlink:href="#DejaVuSans-71" transform="translate(1369.380859 0)"/>
    <use xlink:href="#DejaVuSans-75" transform="translate(1432.857422 0)"/>
    <use xlink:href="#DejaVuSans-69" transform="translate(1496.236328 0)"/>
    <use xlink:href="#DejaVuSans-72" transform="translate(1524.019531 0)"/>
    <use xlink:href="#DejaVuSans-65" transform="translate(1562.882812 0)"/>
    <use xlink:href="#DejaVuSans-6d" transform="translate(1624.40625 0)"/>
    <use xlink:href="#DejaVuSans-65" transform="translate(1721.818359 0)"/>
    <use xlink:href="#DejaVuSans-6e" transform="translate(1783.341797 0)"/>
    <use xlink:href="#DejaVuSans-74" transform="translate(1846.720703 0)"/>
    <use xlink:href="#DejaVuSans-20" transform="translate(1885.929688 0)"/>
    <use xlink:href="#DejaVuSans-74" transform="translate(1917.716797 0)"/>
    <use xlink:href="#DejaVuSans-6f" transform="translate(1956.925781 0)"/>
    <use xlink:href="#DejaVuSans-20" transform="translate(2018.107422 0)"/>
    <use xlink:href="#DejaVuSans-74" transform="translate(2049.894531 0)"/>
    <use xlink:href="#DejaVuSans-68" transform="translate(2089.103516 0)"/>
    <use xlink:href="#DejaVuSans-65" transform="translate(2152.482422 0)"/>
    <use xlink:href="#DejaVuSans-20" transform="translate(2214.005859 0)"/>
    <use xlink:href="#DejaVuSans-70" transform="translate(2245.792969 0)"/>
    <use xlink:href="#DejaVuSans-72" transform="translate(2309.269531 0)"/>
    <use xlink:href="#DejaVuSans-65" transform="translate(2348.132812 0)"/>
    <use xlink:href="#DejaVuSans-76" transform="translate(2409.65625 0)"/>
    <use xlink:href="#DejaVuSans-69" transform="translate(2468.835938 0)"/>
    <use xlink:href="#DejaVuSans-6f" transform="translate(2496.619141 0)"/>
    <use xlink:href="#DejaVuSans-75" transform="translate(2557.800781 0)"/>
    <use xlink:href="#DejaVuSans-73" transform="translate(2621.179688 0)"/>
    <use xlink:href="#DejaVuSans-20" transform="translate(2673.279297 0)"/>
    <use xlink:href="#DejaVuSans-73" transform="translate(2705.066406 0)"/>
    <use xlink:href="#DejaVuSans-75" transform="translate(2757.166016 0)"/>
    <use xlink:href="#DejaVuSans-72" transform="translate(2820.544922 0)"/>
    <use xlink:href="#DejaVuSans-76" transform="translate(2861.658203 0)"/>
    <use xlink:href="#DejaVuSans-69" transform="translate(2920.837891 0)"/>
    <use xlink:href="#DejaVuSans-76" transform="translate(2948.621094 0)"/>
    <use xlink:href="#DejaVuSans-6f" transform="translate(3007.800781 0)"/>
    <use xlink:href="#DejaVuSans-72" transform="translate(3068.982422 0)"/>
    <use xlink:href="#DejaVuSans-73" transform="translate(3110.095703 0)"/>
    <use xlink:href="#DejaVuSans-3b" transform="translate(3162.195312 0)"/>
    <use xlink:href="#DejaVuSans-20" transform="translate(3195.886719 0)"/>
    <use xlink:href="#DejaVuSans-6f" transform="translate(3227.673828 0)"/>
    <use xlink:href="#DejaVuSans-72" transform="translate(3288.855469 0)"/>
    <use xlink:href="#DejaVuSans-64" transform="translate(3328.21875 0)"/>
    <use xlink:href="#DejaVuSans-65" transform="translate(3391.695312 0)"/>
    <use xlink:href="#DejaVuSans-72" transform="translate(3453.21875 0)"/>
    <use xlink:href="#DejaVuSans-20" transform="translate(3494.332031 0)"/>
    <use xlink:href="#DejaVuSans-65" transform="translate(3526.119141 0)"/>
    <use xlink:href="#DejaVuSans-6e" transform="translate(3587.642578 0)"/>
    <use xlink:href="#DejaVuSans-64" transform="translate(3651.021484 0)"/>
    <use xlink:href="#DejaVuSans-73" transform="translate(3714.498047 0)"/>
    <use xlink:href="#DejaVuSans-20" transform="translate(3766.597656 0)"/>
    <use xlink:href="#DejaVuSans-6f" transform="translate(3798.384766 0)"/>
    <use xlink:href="#DejaVuSans-6e" transform="translate(3859.566406 0)"/>
    <use xlink:href="#DejaVuSans-20" transform="translate(3922.945312 0)"/>
    <use xlink:href="#DejaVuSans-74" transform="translate(3954.732422 0)"/>
    <use xlink:href="#DejaVuSans-61" transform="translate(3993.941406 0)"/>
    <use xlink:href="#DejaVuSans-78" transform="translate(4055.220703 0)"/>
    <use xlink:href="#DejaVuSans-6f" transform="translate(4111.275391 0)"/>
    <use xlink:href="#DejaVuSans-6e" transform="translate(4172.457031 0)"/>
    <use xlink:href="#DejaVuSans-6f" transform="translate(4235.835938 0)"/>
    <use xlink:href="#DejaVuSans-6d" transform="translate(4297.017578 0)"/>
    <use xlink:href="#DejaVuSans-79" transform="translate(4394.429688 0)"/>
    <use xlink:href="#DejaVuSans-2c" transform="translate(4453.609375 0)"/>
    <use xlink:href="#DejaVuSans-20" transform="translate(4485.396484 0)"/>
    <use xlink:href="#DejaVuSans-74" transform="translate(4517.183594 0)"/>
    <use xlink:href="#DejaVuSans-68" transform="translate(4556.392578 0)"/>
    <use xlink:href="#DejaVuSans-65" transform="translate(4619.771484 0)"/>
    <use xlink:href="#DejaVuSans-20" transform="translate(4681.294922 0)"/>
    <use xlink:href="#DejaVuSans-62" transform="translate(4713.082031 0)"/>
    <use xlink:href="#DejaVuSans-69" transform="translate(4776.558594 0)"/>
    <use xlink:href="#DejaVuSans-6e" transform="translate(4804.341797 0)"/>
    <use xlink:href="#DejaVuSans-64" transform="translate(4867.720703 0)"/>
    <use xlink:href="#DejaVuSans-69" transform="translate(4931.197266 0)"/>
    <use xlink:href="#DejaVuSans-6e" transform="translate(4958.980469 0)"/>
    <use xlink:href="#DejaVuSans-67" transform="translate(5022.359375 0)"/>
    <use xlink:href="#DejaVuSans-20" transform="translate(5085.835938 0)"/>
    <use xlink:href="#DejaVuSans-63" transform="translate(5117.623047 0)"/>
    <use xlink:href="#DejaVuSans-6f" transform="translate(5172.603516 0)"/>
    <use xlink:href="#DejaVuSans-6e" transform="translate(5233.785156 0)"/>
    <use xlink:href="#DejaVuSans-73" transform="translate(5297.164062 0)"/>
    <use xlink:href="#DejaVuSans-74" transform="translate(5349.263672 0)"/>
    <use xlink:href="#DejaVuSans-72" transform="translate(5388.472656 0)"/>
    <use xlink:href="#DejaVuSans-61" transform="translate(5429.585938 0)"/>
    <use xlink:href="#DejaVuSans-69" transform="translate(5490.865234 0)"/>
    <use xlink:href="#DejaVuSans-6e" transform="translate(5518.648438 0)"/>
    <use xlink:href="#DejaVuSans-74" transform="translate(5582.027344 0)"/>
    <use xlink:href="#DejaVuSans-2e" transform="translate(5621.236328 0)"/>
    <use xlink:href="#DejaVuSans-20" transform="translate(5653.023438 0)"/>
    <use xlink:href="#DejaVuSans-52" transform="translate(5684.810547 0)"/>
    <use xlink:href="#DejaVuSans-65" transform="translate(5749.792969 0)"/>
    <use xlink:href="#DejaVuSans-74" transform="translate(5811.316406 0)"/>
    <use xlink:href="#DejaVuSans-72" transform="translate(5850.525391 0)"/>
    <use xlink:href="#DejaVuSans-69" transform="translate(5891.638672 0)"/>
    <use xlink:href="#DejaVuSans-65" transform="translate(5919.421875 0)"/>
    <use xlink:href="#DejaVuSans-76" transform="translate(5980.945312 0)"/>
    <use xlink:href="#DejaVuSans-61" transform="translate(6040.125 0)"/>
    <use xlink:href="#DejaVuSans-6c" transform="translate(6101.404297 0)"/>
    <use xlink:href="#DejaVuSans-20" transform="translate(6129.1875 0)"/>
    <use xlink:href="#DejaVuSans-4a" transform="translate(6160.974609 0)"/>
    <use xlink:href="#DejaVuSans-75" transform="translate(6190.466797 0)"/>
    <use xlink:href="#DejaVuSans-6c" transform="translate(6253.845703 0)"/>
    <use xlink:href="#DejaVuSans-79" transform="translate(6281.628906 0)"/>
    <use xlink:href="#DejaVuSans-20" transform="translate(6340.808594 0)"/>
    <use xlink:href="#DejaVuSans-32" transform="translate(6372.595703 0)"/>
    <use xlink:href="#DejaVuSans-30" transform="translate(6436.21875 0)"/>
    <use xlink:href="#DejaVuSans-32" transform="translate(6499.841797 0)"/>
    <use xlink:href="#DejaVuSans-36" transform="translate(6563.464844 0)"/>
    <use xlink:href="#DejaVuSans-2e" transform="translate(6627.087891 0)"/>
   </g>
  </g>
 </g>
 <defs>
  <clipPath id="pc59b5e1d7a">
   <rect x="90.656" y="33.875875" width="420.04" height="215.172"/>
  </clipPath>
 </defs>
</svg>
